<?xml version="1.0" encoding="UTF-8"?>
<!DOCTYPE svg PUBLIC "-//W3C//DTD SVG 1.1//EN" "http://www.w3.org/Graphics/SVG/1.1/DTD/svg11.dtd">
<svg xmlns="http://www.w3.org/2000/svg" version="1.1" width="225px" height="225px" style="shape-rendering:geometricPrecision; text-rendering:geometricPrecision; image-rendering:optimizeQuality; fill-rule:evenodd; clip-rule:evenodd" xmlns:xlink="http://www.w3.org/1999/xlink">
<g><path style="opacity:1" fill="#fefefe" d="M -0.5,-0.5 C 74.5,-0.5 149.5,-0.5 224.5,-0.5C 224.5,74.5 224.5,149.5 224.5,224.5C 149.5,224.5 74.5,224.5 -0.5,224.5C -0.5,149.5 -0.5,74.5 -0.5,-0.5 Z"/></g>
<g><path style="opacity:1" fill="#3295b4" d="M 86.5,36.5 C 105.781,33.5519 119.281,40.8852 127,58.5C 130.719,75.0071 125.886,88.5071 112.5,99C 111.5,99.6667 110.5,99.6667 109.5,99C 106.266,95.8554 103.266,92.5221 100.5,89C 105.833,84.6783 109.999,79.5117 113,73.5C 114.416,63.5699 110.583,56.4033 101.5,52C 97.5,51.3333 93.5,51.3333 89.5,52C 84.0966,54.7404 79.2632,58.2404 75,62.5C 71.6731,59.3392 68.5064,56.0059 65.5,52.5C 70.9485,44.9625 77.9485,39.6292 86.5,36.5 Z"/></g>
<g><path style="opacity:1" fill="#055072" d="M 62.5,61.5 C 96.6511,96.4248 130.818,131.425 165,166.5C 165.667,167.167 165.667,167.833 165,168.5C 161.667,171.833 158.333,175.167 155,178.5C 150.017,172.35 144.517,166.684 138.5,161.5C 132.348,167.152 126.348,172.985 120.5,179C 104.974,189.553 88.9738,190.219 72.5,181C 59.2445,170.238 54.0779,156.405 57,139.5C 60.8831,127.275 68.2164,117.608 79,110.5C 82.5,114 86,117.5 89.5,121C 82.5128,126.976 76.6794,133.81 72,141.5C 69.0244,156.389 74.5244,166.555 88.5,172C 96.9979,173.854 104.665,172.187 111.5,167C 117.015,161.652 122.348,156.152 127.5,150.5C 105.817,127.985 84.3173,105.318 63,82.5C 62.5004,75.5079 62.3337,68.5079 62.5,61.5 Z"/></g>
<g><path style="opacity:1" fill="#3195b4" d="M 137.5,77.5 C 161.545,85.7425 171.045,102.409 166,127.5C 163.925,134.4 160.091,140.066 154.5,144.5C 150.833,141.5 147.5,138.167 144.5,134.5C 153.33,124.903 154.83,114.236 149,102.5C 145.942,98.9383 142.442,95.9383 138.5,93.5C 137.505,88.2079 137.172,82.8746 137.5,77.5 Z"/></g>
</svg>
